<svg width="100" height="28" viewBox="0 0 100 28" fill="none" xmlns="http://www.w3.org/2000/svg">
<path d="M0.275568 27V0.818181H5.81108V22.4361H17.0355V27H0.275568ZM43.7415 13.9091C43.7415 16.7642 43.2003 19.1932 42.1179 21.196C41.044 23.1989 39.5781 24.7287 37.7202 25.7855C35.8707 26.8338 33.7912 27.358 31.4815 27.358C29.1548 27.358 27.0668 26.8295 25.2173 25.7727C23.3679 24.7159 21.9063 23.1861 20.8324 21.1832C19.7585 19.1804 19.2216 16.7557 19.2216 13.9091C19.2216 11.054 19.7585 8.625 20.8324 6.62216C21.9063 4.61932 23.3679 3.09375 25.2173 2.04545C27.0668 0.988636 29.1548 0.460226 31.4815 0.460226C33.7912 0.460226 35.8707 0.988636 37.7202 2.04545C39.5781 3.09375 41.044 4.61932 42.1179 6.62216C43.2003 8.625 43.7415 11.054 43.7415 13.9091ZM38.1293 13.9091C38.1293 12.0597 37.8523 10.5 37.2983 9.23011C36.7528 7.96023 35.9815 6.99716 34.9844 6.34091C33.9872 5.68466 32.8196 5.35653 31.4815 5.35653C30.1435 5.35653 28.9759 5.68466 27.9787 6.34091C26.9815 6.99716 26.206 7.96023 25.652 9.23011C25.1065 10.5 24.8338 12.0597 24.8338 13.9091C24.8338 15.7585 25.1065 17.3182 25.652 18.5881C26.206 19.858 26.9815 20.821 27.9787 21.4773C28.9759 22.1335 30.1435 22.4616 31.4815 22.4616C32.8196 22.4616 33.9872 22.1335 34.9844 21.4773C35.9815 20.821 36.7528 19.858 37.2983 18.5881C37.8523 17.3182 38.1293 15.7585 38.1293 13.9091ZM65.2028 9.28125C65.0238 8.65909 64.7724 8.10937 64.4485 7.6321C64.1246 7.14631 63.7283 6.73722 63.2596 6.40483C62.7994 6.06392 62.271 5.80398 61.6744 5.625C61.0863 5.44602 60.4343 5.35653 59.7184 5.35653C58.3803 5.35653 57.2042 5.68892 56.19 6.35369C55.1843 7.01846 54.4002 7.98579 53.8377 9.25568C53.2752 10.517 52.994 12.0597 52.994 13.8835C52.994 15.7074 53.271 17.2585 53.8249 18.5369C54.3789 19.8153 55.163 20.7912 56.1772 21.4645C57.1914 22.1293 58.3888 22.4616 59.7695 22.4616C61.0224 22.4616 62.092 22.2401 62.9783 21.7969C63.8732 21.3452 64.555 20.7102 65.0238 19.892C65.5011 19.0739 65.7397 18.1065 65.7397 16.9901L66.8647 17.1562H60.1147V12.9886H71.0707V16.2869C71.0707 18.5881 70.5849 20.5653 69.6133 22.2188C68.6417 23.8636 67.3036 25.1335 65.5991 26.0284C63.8945 26.9148 61.9428 27.358 59.744 27.358C57.2894 27.358 55.1332 26.8168 53.2752 25.7344C51.4173 24.6435 49.9684 23.0966 48.9286 21.0938C47.8974 19.0824 47.3817 16.696 47.3817 13.9347C47.3817 11.8125 47.6886 9.92045 48.3022 8.25852C48.9244 6.58807 49.7937 5.1733 50.9102 4.0142C52.0266 2.85511 53.3263 1.97301 54.8093 1.3679C56.2923 0.762783 57.8988 0.460226 59.6289 0.460226C61.1119 0.460226 62.4925 0.677556 63.771 1.11222C65.0494 1.53835 66.1829 2.14347 67.1715 2.92756C68.1687 3.71165 68.9826 4.64489 69.6133 5.72727C70.244 6.80114 70.6488 7.98579 70.8278 9.28125H65.2028ZM99.2884 13.9091C99.2884 16.7642 98.7472 19.1932 97.6648 21.196C96.5909 23.1989 95.125 24.7287 93.267 25.7855C91.4176 26.8338 89.3381 27.358 87.0284 27.358C84.7017 27.358 82.6136 26.8295 80.7642 25.7727C78.9148 24.7159 77.4531 23.1861 76.3793 21.1832C75.3054 19.1804 74.7685 16.7557 74.7685 13.9091C74.7685 11.054 75.3054 8.625 76.3793 6.62216C77.4531 4.61932 78.9148 3.09375 80.7642 2.04545C82.6136 0.988636 84.7017 0.460226 87.0284 0.460226C89.3381 0.460226 91.4176 0.988636 93.267 2.04545C95.125 3.09375 96.5909 4.61932 97.6648 6.62216C98.7472 8.625 99.2884 11.054 99.2884 13.9091ZM93.6761 13.9091C93.6761 12.0597 93.3991 10.5 92.8452 9.23011C92.2997 7.96023 91.5284 6.99716 90.5312 6.34091C89.5341 5.68466 88.3665 5.35653 87.0284 5.35653C85.6903 5.35653 84.5227 5.68466 83.5256 6.34091C82.5284 6.99716 81.7528 7.96023 81.1989 9.23011C80.6534 10.5 80.3807 12.0597 80.3807 13.9091C80.3807 15.7585 80.6534 17.3182 81.1989 18.5881C81.7528 19.858 82.5284 20.821 83.5256 21.4773C84.5227 22.1335 85.6903 22.4616 87.0284 22.4616C88.3665 22.4616 89.5341 22.1335 90.5312 21.4773C91.5284 20.821 92.2997 19.858 92.8452 18.5881C93.3991 17.3182 93.6761 15.7585 93.6761 13.9091Z" fill="black"/>
</svg>
