<?xml version="1.0" standalone="no"?>
<!DOCTYPE svg PUBLIC "-//W3C//DTD SVG 20010904//EN"
 "http://www.w3.org/TR/2001/REC-SVG-20010904/DTD/svg10.dtd">
<svg version="1.0" xmlns="http://www.w3.org/2000/svg"
 width="920.000000pt" height="920.000000pt" viewBox="0 0 920.000000 920.000000"
 preserveAspectRatio="xMidYMid meet">

<g transform="translate(0.000000,920.000000) scale(0.100000,-0.100000)"
fill="#000000" stroke="none">
<path d="M4315 9194 c-22 -2 -92 -9 -155 -14 -954 -89 -1855 -478 -2595 -1121
-125 -108 -384 -373 -489 -499 -402 -481 -705 -1043 -885 -1640 -60 -200 -88
-320 -121 -518 -57 -345 -64 -431 -65 -787 0 -355 7 -446 56 -760 131 -838
508 -1638 1078 -2287 401 -457 883 -826 1431 -1097 149 -73 405 -181 520 -219
300 -98 475 -143 708 -182 342 -57 438 -64 802 -64 362 0 462 8 800 63 606
100 1265 366 1775 716 673 463 1189 1053 1550 1774 67 135 245 563 245 590 0
6 20 76 44 154 59 192 90 327 125 552 50 315 56 404 55 760 0 351 -7 433 -60
763 l-27 172 -234 0 c-180 0 -233 -3 -233 -12 0 -7 5 -32 10 -55 22 -94 70
-438 81 -578 31 -398 -15 -939 -112 -1315 -241 -935 -772 -1730 -1546 -2313
-347 -262 -765 -478 -1183 -613 -302 -97 -496 -139 -826 -180 -179 -22 -574
-30 -758 -15 -275 22 -599 76 -791 132 -538 156 -976 370 -1388 678 -695 519
-1210 1237 -1468 2048 -94 295 -141 518 -181 858 -17 146 -17 684 0 830 23
196 62 427 92 551 192 776 575 1447 1141 1999 468 457 1007 781 1624 979 288
92 506 138 850 178 166 20 704 16 873 -5 227 -29 439 -67 571 -103 148 -40
453 -139 493 -160 60 -31 58 -37 58 230 l0 244 -82 26 c-226 70 -287 88 -395
116 -126 32 -400 80 -603 105 -119 15 -687 29 -785 19z"/>
<path d="M8558 8241 c-425 -271 -961 -648 -1328 -934 -1169 -910 -2189 -1878
-3103 -2944 l-181 -211 -66 51 c-60 48 -613 489 -1195 952 -132 105 -318 253
-413 328 -94 76 -178 140 -186 143 -15 6 -821 -645 -821 -663 0 -6 117 -132
260 -280 143 -147 865 -892 1604 -1656 739 -763 1347 -1387 1351 -1387 4 0 17
28 30 63 35 96 122 290 238 532 630 1312 1730 2952 2861 4265 361 419 667 746
1063 1136 l275 271 -96 226 c-53 125 -99 227 -102 227 -3 0 -89 -53 -191 -119z"/>
</g>
</svg>
