<?xml version="1.0" standalone="no"?>
<!DOCTYPE svg PUBLIC "-//W3C//DTD SVG 20010904//EN"
 "http://www.w3.org/TR/2001/REC-SVG-20010904/DTD/svg10.dtd">
<svg version="1.0" xmlns="http://www.w3.org/2000/svg"
 width="920.000000pt" height="920.000000pt" viewBox="0 0 920.000000 920.000000"
 preserveAspectRatio="xMidYMid meet">

<g transform="translate(0.000000,920.000000) scale(0.100000,-0.100000)"
fill="#000000" stroke="none">
<path d="M5529 8101 l-24 -19 -3 -731 -2 -731 -23 -4 c-12 -2 -110 -14 -217
-25 -439 -48 -964 -179 -1375 -344 -516 -206 -923 -466 -1265 -807 -444 -442
-715 -967 -834 -1620 -30 -166 -56 -410 -56 -528 l0 -87 58 108 c277 521 801
886 1562 1087 522 138 1133 200 1940 196 l215 -1 5 -808 5 -809 24 -19 c26
-21 59 -18 101 11 14 9 257 181 540 380 283 200 574 405 645 455 72 50 321
226 555 391 234 165 724 511 1090 769 366 257 678 480 693 494 39 38 45 87 15
129 -13 19 -176 140 -398 295 -206 145 -573 402 -815 572 -242 170 -629 441
-860 603 -231 162 -463 325 -515 362 -480 339 -951 668 -980 682 -43 23 -52
22 -81 -1z"/>
<path d="M0 4245 l0 -3125 3735 0 3735 0 0 270 0 270 -3465 0 -3465 0 0 2585
0 2585 1165 0 1164 0 3 270 3 270 -1437 0 -1438 0 0 -3125z"/>
</g>
</svg>
